GIL06_fast3_ik
nRows=3
nColumns=375

# SIMM Motion File Header:
name GIL06_fast3_ik
datacolumns 375
datarows 3
otherdata 1
range 0.11667000 0.13333000
endheader
time	pelvis_tx	pelvis_ty	pelvis_tz	pelvis_tilt	pelvis_list	pelvis_rotation	hip_flexion_r	hip_adduction_r	hip_rotation_r	knee_angle_r	ankle_angle_r	hip_flexion_l	hip_adduction_l	hip_rotation_l	knee_angle_l	ankle_angle_l	lumbar_extension	lumbar_bending	lumbar_rotation	subtalar_angle_r	mtp_angle_r	subtalar_angle_l	mtp_angle_l	asis_r_px	asis_r_py	asis_r_pz	asis_l_px	asis_l_py	asis_l_pz	midasis_px	midasis_py	midasis_pz	psis_r_px	psis_r_py	psis_r_pz	psis_l_px	psis_l_py	psis_l_pz	hip_r_px	hip_r_py	hip_r_pz	hip_l_px	hip_l_py	hip_l_pz	midhip_px	midhip_py	midhip_pz	epicondLat_r_px	epicondLat_r_py	epicondLat_r_pz	epicondMed_r_px	epicondMed_r_py	epicondMed_r_pz	thighwand_r_px	thighwand_r_py	thighwand_r_pz	upperleg1_r_px	upperleg1_r_py	upperleg1_r_pz	upperleg2_r_px	upperleg2_r_py	upperleg2_r_pz	malleolusLat_r_px	malleolusLat_r_py	malleolusLat_r_pz	malleolusMedv_r_px	malleolusMedv_r_py	malleolusMedv_r_pz	shankwand_r_px	shankwand_r_py	shankwand_r_pz	lowerleg1_r_px	lowerleg1_r_py	lowerleg1_r_pz	knee_r_px	knee_r_py	knee_r_pz	ankle_r_px	ankle_r_py	ankle_r_pz	toe_r_px	toe_r_py	toe_r_pz	epicondLat_l_px	epicondLat_l_py	epicondLat_l_pz	epicondMed_l_px	epicondMed_l_py	epicondMed_l_pz	thighwand_l_px	thighwand_l_py	thighwand_l_pz	upperleg1_l_px	upperleg1_l_py	upperleg1_l_pz	upperleg2_l_px	upperleg2_l_py	upperleg2_l_pz	malleolusLat_l_px	malleolusLat_l_py	malleolusLat_l_pz	malleolusMedv_l_px	malleolusMedv_l_py	malleolusMedv_l_pz	shankwand_l_px	shankwand_l_py	shankwand_l_pz	lowerleg1_l_px	lowerleg1_l_py	lowerleg1_l_pz	knee_l_px	knee_l_py	knee_l_pz	ankle_l_px	ankle_l_py	ankle_l_pz	toe_l_px	toe_l_py	toe_l_pz	subclavicle_r_px	subclavicle_r_py	subclavicle_r_pz	subclavicle_l_px	subclavicle_l_py	subclavicle_l_pz	neck_px	neck_py	neck_pz	sternalnotch_px	sternalnotch_py	sternalnotch_pz	xyphoidprocess_px	xyphoidprocess_py	xyphoidprocess_pz	midhip_tx	midhip_ty	midhip_tz	hip_r_tx	hip_r_ty	hip_r_tz	hip_l_tx	hip_l_ty	hip_l_tz	knee_r_tx	knee_r_ty	knee_r_tz	knee_l_tx	knee_l_ty	knee_l_tz	ankle_r_tx	ankle_r_ty	ankle_r_tz	ankle_l_tx	ankle_l_ty	ankle_l_tz	midasis_tx	midasis_ty	midasis_tz	asis_r_tx	asis_r_ty	asis_r_tz	asis_l_tx	asis_l_ty	asis_l_tz	psis_r_tx	psis_r_ty	psis_r_tz	psis_l_tx	psis_l_ty	psis_l_tz	epicondLat_r_tx	epicondLat_r_ty	epicondLat_r_tz	epicondLat_l_tx	epicondLat_l_ty	epicondLat_l_tz	epicondMed_r_tx	epicondMed_r_ty	epicondMed_r_tz	epicondMed_l_tx	epicondMed_l_ty	epicondMed_l_tz	malleolusLat_r_tx	malleolusLat_r_ty	malleolusLat_r_tz	malleolusLat_l_tx	malleolusLat_l_ty	malleolusLat_l_tz	malleolusMedv_r_tx	malleolusMedv_r_ty	malleolusMedv_r_tz	malleolusMedv_l_tx	malleolusMedv_l_ty	malleolusMedv_l_tz	neck_tx	neck_ty	neck_tz	subclavicle_r_tx	subclavicle_r_ty	subclavicle_r_tz	subclavicle_l_tx	subclavicle_l_ty	subclavicle_l_tz	sternalnotch_tx	sternalnotch_ty	sternalnotch_tz	xyphoidprocess_tx	xyphoidprocess_ty	xyphoidprocess_tz	thighwand_r_tx	thighwand_r_ty	thighwand_r_tz	thighwand_l_tx	thighwand_l_ty	thighwand_l_tz	upperleg1_r_tx	upperleg1_r_ty	upperleg1_r_tz	upperleg1_l_tx	upperleg1_l_ty	upperleg1_l_tz	upperleg2_r_tx	upperleg2_r_ty	upperleg2_r_tz	upperleg2_l_tx	upperleg2_l_ty	upperleg2_l_tz	shankwand_r_tx	shankwand_r_ty	shankwand_r_tz	shankwand_l_tx	shankwand_l_ty	shankwand_l_tz	lowerleg1_r_tx	lowerleg1_r_ty	lowerleg1_r_tz	lowerleg1_l_tx	lowerleg1_l_ty	lowerleg1_l_tz	toe_r_tx	toe_r_ty	toe_r_tz	toe_l_tx	toe_l_ty	toe_l_tz	ground_force_vx	ground_force_vy	ground_force_vz	ground_force_px	ground_force_py	ground_force_pz	ground_force_vx	ground_force_vy	ground_force_vz	ground_force_px	ground_force_py	ground_force_pz	ground_torque_x	ground_torque_y	ground_torque_z	ground_torque_x	ground_torque_y	ground_torque_z	ground_marker_px	ground_marker_py	ground_marker_pz	ground_marker_px	ground_marker_py	ground_marker_pz	ground_marker_px	ground_marker_py	ground_marker_pz	ground_marker_px	ground_marker_py	ground_marker_pz	ground_marker_px	ground_marker_py	ground_marker_pz	ground_marker_px	ground_marker_py	ground_marker_pz	ground_marker_px	ground_marker_py	ground_marker_pz	ground_marker_px	ground_marker_py	ground_marker_pz	ground_marker_px	ground_marker_py	ground_marker_pz	ground_marker_px	ground_marker_py	ground_marker_pz	ground_marker_px	ground_marker_py	ground_marker_pz	ground_marker_px	ground_marker_py	ground_marker_pz	ground_marker_px	ground_marker_py	ground_marker_pz	ground_marker_px	ground_marker_py	ground_marker_pz	ground_marker_px	ground_marker_py	ground_marker_pz	ground_marker_px	ground_marker_py	ground_marker_pz	ground_marker_px	ground_marker_py	ground_marker_pz	ground_marker_px	ground_marker_py	ground_marker_pz	ground_marker_px	ground_marker_py	ground_marker_pz	ground_marker_px	ground_marker_py	ground_marker_pz	ground_marker_px	ground_marker_py	ground_marker_pz	ground_marker_px	ground_marker_py	ground_marker_pz	ground_marker_px	ground_marker_py	ground_marker_pz	ground_marker_px	ground_marker_py	ground_marker_pz	ground_marker_px	ground_marker_py	ground_marker_pz	ground_marker_px	ground_marker_py	ground_marker_pz	ground_marker_px	ground_marker_py	ground_marker_pz	ground_marker_px	ground_marker_py	ground_marker_pz	ground_marker_px	ground_marker_py	ground_marker_pz	ground_marker_px	ground_marker_py	ground_marker_pz	ground_marker_px	ground_marker_py	ground_marker_pz	ground_marker_px	ground_marker_py	ground_marker_pz	ground_marker_px	ground_marker_py	ground_marker_pz	ground_marker_px	ground_marker_py	ground_marker_pz	ground_marker_px	ground_marker_py	ground_marker_pz	ground_marker_px	ground_marker_py	ground_marker_pz	ground_marker_px	ground_marker_py	ground_marker_pz
      0.11667000	      0.03188587	      0.81818304	     -0.25968620	     -3.66066284	      5.04174412	     -6.30786125	     -6.30724044	     -8.89274096	     -2.31739156	    -43.35549407	    -31.30519912	     27.66204281	      5.08737747	      1.44347792	    -20.02269108	     -3.99949149	      7.82300284	     -7.85716760	     18.07086580	      0.00000000	      0.00000000	      0.00000000	      0.00000000	      0.07439562	      0.79326316	     -0.13856296	      0.10133892	      0.81221865	     -0.38226711	      0.04521793	      0.81719997	     -0.25821426	     -0.14810951	      0.90397176	     -0.24453000	     -0.14637911	      0.90685796	     -0.29967139	     -0.04872210	      0.75359395	     -0.19327999	     -0.03023702	      0.76645326	     -0.35211972	     -0.03947956	      0.76002361	     -0.27269986	     -0.12761249	      0.38160455	     -0.11331100	     -0.12665316	      0.38278701	     -0.25842157	      0.05550382	      0.50495588	     -0.10168852	      0.02441550	      0.53235502	     -0.12751341	     -0.01468933	      0.46541924	     -0.13460070	     -0.43121300	      0.17866295	     -0.14845577	     -0.40639906	      0.16374216	     -0.21952417	     -0.25643221	      0.19123969	     -0.14620904	     -0.27663300	      0.23006568	     -0.16528244	     -0.11626855	      0.38864808	     -0.17255513	     -0.41288911	      0.17120854	     -0.19306442	     -0.42815383	      0.06015988	     -0.17813731	      0.12400558	      0.41921857	     -0.39625839	      0.10642803	      0.40632171	     -0.24925153	      0.20991044	      0.65407292	     -0.32931288	      0.16173313	      0.64974488	     -0.34273693	      0.17339263	      0.57694301	     -0.33800389	      0.12058852	      0.04736935	     -0.37419237	      0.12617220	      0.06452932	     -0.29629888	      0.10862066	      0.15828622	     -0.44079180	      0.10568976	      0.16988273	     -0.39338631	      0.11324888	      0.42821582	     -0.32986142	      0.13499934	      0.06050542	     -0.32929917	      0.23388798	      0.03700011	     -0.33282755	     -0.01502795	      1.26251629	     -0.24551852	     -0.02228266	      1.26105732	     -0.32711416	     -0.15939927	      1.29910446	     -0.27228536	     -0.03487746	      1.25258363	     -0.29693352	      0.03184192	      1.19216267	     -0.30058301	     -0.03968900	      0.75405100	     -0.27976500	     -0.06945000	      0.75294500	     -0.20321500	     -0.05014200	      0.76283700	     -0.35732500	     -0.13689800	      0.37769400	     -0.17453200	      0.10093400	      0.42451700	     -0.33140400	     -0.42289400	      0.16081800	     -0.19958100	      0.12670600	      0.05782800	     -0.31335100	      0.06563700	      0.83125600	     -0.25984600	      0.05066300	      0.82358500	     -0.14032400	      0.08061100	      0.83892800	     -0.37936900	     -0.18122000	      0.89815400	     -0.24669200	     -0.17945000	      0.89938100	     -0.30056100	     -0.14657700	      0.38482200	     -0.10405000	      0.11382000	      0.42488300	     -0.40173200	     -0.10567300	      0.36609000	     -0.25564700	      0.08727100	      0.40660200	     -0.24453000	     -0.43560700	      0.17365600	     -0.16558400	      0.11777000	      0.05530900	     -0.35174400	     -0.40463700	      0.15287200	     -0.23088800	      0.11956000	      0.07437600	     -0.27410600	     -0.15325100	      1.32262200	     -0.27539500	     -0.01933400	      1.26451200	     -0.24281600	     -0.02306200	      1.26570900	     -0.32638100	     -0.03812500	      1.25889900	     -0.29606000	      0.01865200	      1.18880800	     -0.29844800	      0.03466100	      0.51584300	     -0.08117200	      0.19007700	      0.65246900	     -0.31793200	      0.00562800	      0.53738300	     -0.11227700	      0.14688100	      0.64917200	     -0.33654000	     -0.02414600	      0.46629800	     -0.12129600	      0.15981800	      0.57771300	     -0.32860500	     -0.26169500	      0.18938300	     -0.14232200	      0.11904400	      0.15634900	     -0.42279300	     -0.28470900	      0.22107300	     -0.16327400	      0.11498700	      0.17106100	     -0.37824500	     -0.41683000	      0.05953900	     -0.20608300	      0.23358800	      0.04893600	     -0.32525000	      0.00000000	      0.00000000	      0.00000000	      0.62956982	      0.00000000	     -0.20499060	   -179.12349886	    812.39295969	     41.85083652	      0.14094769	      0.00000000	     -0.31917691	      0.00000000	      0.00000000	      0.00000000	      0.00000000	      2.67758423	      0.00000000	     -0.03968854	      0.75405079	     -0.27976465	     -0.06945001	      0.75294477	     -0.20321538	     -0.05014247	      0.76283652	     -0.35732508	     -0.13689767	      0.37769431	     -0.17453247	      0.10093367	      0.42451724	     -0.33140430	     -0.42289352	      0.16081755	     -0.19958095	      0.12670586	      0.05782770	     -0.31335106	      0.06563713	      0.83125627	     -0.25984633	      0.05066283	      0.82358462	     -0.14032382	      0.08061143	      0.83892798	     -0.37936884	     -0.18121970	      0.89815444	     -0.24669194	     -0.17944959	      0.89938074	     -0.30056110	     -0.14657742	      0.38482156	     -0.10405017	      0.11382016	      0.42488340	     -0.40173247	     -0.10567299	      0.36609009	     -0.25564659	      0.08727112	      0.40660164	     -0.24453017	     -0.43560672	      0.17365594	     -0.16558388	      0.11776961	      0.05530941	     -0.35174444	     -0.40463710	      0.15287192	     -0.23088768	      0.11956050	      0.07437589	     -0.27410641	     -0.15325058	      1.32262182	     -0.27539533	     -0.01933393	      1.26451194	     -0.24281606	     -0.02306163	      1.26570904	     -0.32638088	     -0.03812490	      1.25889862	     -0.29606041	      0.01865182	      1.18880796	     -0.29844812	      0.03466125	      0.51584291	     -0.08117180	      0.19007675	      0.65246874	     -0.31793165	      0.00562833	      0.53738326	     -0.11227659	      0.14688095	      0.64917248	     -0.33654019	     -0.02414596	      0.46629786	     -0.12129590	      0.15981799	      0.57771271	     -0.32860464	     -0.26169509	      0.18938337	     -0.14232169	      0.11904357	      0.15634865	     -0.42279339	     -0.28470948	      0.22107336	     -0.16327420	      0.11498698	      0.17106134	     -0.37824523	     -0.41682982	      0.05953874	     -0.20608294	      0.23358750	      0.04893615	     -0.32525042
      0.12500000	      0.04395026	      0.82004014	     -0.26211304	     -3.38815735	      5.19632852	     -6.01604383	     -5.06157627	     -9.45124725	     -2.47725553	    -46.26105290	    -31.18875277	     26.47702775	      5.72486574	      1.84575994	    -19.92003392	     -3.41501793	      7.40093465	     -7.95533309	     17.52114848	      0.00000000	      0.00000000	      0.00000000	      0.00000000	      0.08718272	      0.79498012	     -0.14127485	      0.11283128	      0.81480500	     -0.38504952	      0.05729432	      0.81912224	     -0.26070928	     -0.13641255	      0.90484276	     -0.24581814	     -0.13496769	      0.90790293	     -0.30095837	     -0.03599385	      0.75483293	     -0.19550870	     -0.01835530	      0.76826370	     -0.35439738	     -0.02717457	      0.76154831	     -0.27495304	     -0.10504854	      0.38170009	     -0.11185352	     -0.10439530	      0.38152588	     -0.25697050	      0.07482538	      0.50986540	     -0.10179136	      0.04298731	      0.53620177	     -0.12780779	      0.00562005	      0.46820963	     -0.13417743	     -0.41376904	      0.18560725	     -0.14706301	     -0.38917135	      0.16987170	     -0.21803078	     -0.23874050	      0.19396334	     -0.14446837	     -0.25795606	      0.23320708	     -0.16370415	     -0.09378987	      0.38784449	     -0.17110403	     -0.39553549	      0.17757444	     -0.19160823	     -0.41329783	      0.06694960	     -0.17630204	      0.13037482	      0.41846207	     -0.39716545	      0.11197290	      0.40616837	     -0.25020780	      0.21982556	      0.65202432	     -0.33034363	      0.17164063	      0.64845519	     -0.34396213	      0.18208869	      0.57548285	     -0.33902926	      0.12143813	      0.04675825	     -0.37422743	      0.12694410	      0.06402572	     -0.29635217	      0.11136884	      0.15767433	     -0.44114155	      0.10840819	      0.16942836	     -0.39377672	      0.11946652	      0.42777865	     -0.33083723	      0.13585021	      0.05979283	     -0.32930506	      0.23463884	      0.03582585	     -0.33251467	     -0.00289252	      1.26378491	     -0.24610455	     -0.00980951	      1.26255491	     -0.32773329	     -0.14708936	      1.30068804	     -0.27337474	     -0.02254421	      1.25402240	     -0.29762802	      0.04408824	      1.19349865	     -0.30116055	     -0.02722700	      0.75570300	     -0.28188200	     -0.05659000	      0.75404000	     -0.20511600	     -0.03801200	      0.76457300	     -0.35927200	     -0.11471500	      0.37581200	     -0.17260300	      0.10691300	      0.42499200	     -0.33230200	     -0.40546500	      0.16627600	     -0.19882000	      0.12722000	      0.05781300	     -0.31323100	      0.07785100	      0.83323200	     -0.26206000	      0.06351700	      0.82510500	     -0.14312400	      0.09218400	      0.84135900	     -0.38099700	     -0.16926000	      0.89849000	     -0.24680400	     -0.16776400	      0.90044900	     -0.30068000	     -0.12443200	      0.38336000	     -0.10216900	      0.12016500	      0.42506800	     -0.40256300	     -0.08073700	      0.36115300	     -0.25180000	      0.09378800	      0.40781400	     -0.24471300	     -0.41793000	      0.17931700	     -0.16480800	      0.11815400	      0.05531800	     -0.35159500	     -0.38781100	      0.15750000	     -0.22989500	      0.11980500	      0.07477700	     -0.27405700	     -0.14115200	      1.32423400	     -0.27628100	     -0.00683100	      1.26599600	     -0.24375600	     -0.01039600	      1.26733400	     -0.32649700	     -0.02580500	      1.26022600	     -0.29693500	      0.03132000	      1.19042100	     -0.29905800	      0.05415900	      0.51877300	     -0.08037500	      0.19991500	      0.65226700	     -0.31858100	      0.02500500	      0.53867200	     -0.11168300	      0.15490400	      0.65058500	     -0.33635300	     -0.00277000	      0.46640700	     -0.11931000	      0.16698400	      0.57797700	     -0.32928000	     -0.24384300	      0.19036500	     -0.14103300	      0.12078500	      0.15597400	     -0.42288000	     -0.26653100	      0.22333000	     -0.16290500	      0.11652900	      0.17137400	     -0.37854900	     -0.40207600	      0.06422600	     -0.20421000	      0.23388300	      0.04840800	     -0.32496500	      0.00000000	      0.00000000	      0.00000000	      0.63058179	      0.00000000	     -0.20534534	   -172.23055967	    819.78181224	     41.21087784	      0.14311411	      0.00000000	     -0.31954080	      0.00000000	      0.00000000	      0.00000000	      0.00000000	      2.97796265	      0.00000000	     -0.02722713	      0.75570333	     -0.28188193	     -0.05658984	      0.75403970	     -0.20511559	     -0.03801158	      0.76457304	     -0.35927239	     -0.11471546	      0.37581226	     -0.17260274	      0.10691290	      0.42499232	     -0.33230212	     -0.40546533	      0.16627644	     -0.19881964	      0.12721974	      0.05781250	     -0.31323054	      0.07785051	      0.83323193	     -0.26206011	      0.06351683	      0.82510513	     -0.14312355	      0.09218419	      0.84135872	     -0.38099664	     -0.16926016	      0.89849019	     -0.24680427	     -0.16776407	      0.90044880	     -0.30067992	     -0.12443200	      0.38336003	     -0.10216930	      0.12016515	      0.42506772	     -0.40256324	     -0.08073749	      0.36115265	     -0.25179952	      0.09378795	      0.40781376	     -0.24471316	     -0.41793036	      0.17931727	     -0.16480772	      0.11815394	      0.05531843	     -0.35159510	     -0.38781056	      0.15750031	     -0.22989534	      0.11980487	      0.07477725	     -0.27405667	     -0.14115220	      1.32423377	     -0.27628058	     -0.00683070	      1.26599610	     -0.24375556	     -0.01039636	      1.26733351	     -0.32649708	     -0.02580493	      1.26022625	     -0.29693547	      0.03132014	      1.19042122	     -0.29905820	      0.05415947	      0.51877254	     -0.08037455	      0.19991474	      0.65226710	     -0.31858072	      0.02500529	      0.53867221	     -0.11168318	      0.15490431	      0.65058541	     -0.33635283	     -0.00277027	      0.46640712	     -0.11931032	      0.16698417	      0.57797694	     -0.32928047	     -0.24384254	      0.19036506	     -0.14103322	      0.12078501	      0.15597436	     -0.42287984	     -0.26653078	      0.22333041	     -0.16290501	      0.11652886	      0.17137361	     -0.37854937	     -0.40207636	      0.06422569	     -0.20420964	      0.23388293	      0.04840799	     -0.32496527
      0.13333000	      0.05570832	      0.82184477	     -0.26432490	     -3.17193852	      5.34544027	     -5.69185868	     -3.65795496	     -9.94336690	     -2.63932787	    -49.20892132	    -30.18642012	     25.23891776	      6.32422258	      2.26716788	    -19.57359579	     -2.93150018	      7.01301997	     -8.05842836	     16.92704057	      0.00000000	      0.00000000	      0.00000000	      0.00000000	      0.09970959	      0.79661956	     -0.14379899	      0.12393613	      0.81726359	     -0.38765112	      0.06906368	      0.82098020	     -0.26299684	     -0.12492421	      0.90582303	     -0.24679510	     -0.12379479	      0.90904976	     -0.30193320	     -0.02358927	      0.75610083	     -0.19747577	     -0.00687977	      0.77006947	     -0.35641848	     -0.01523452	      0.76308515	     -0.27694713	     -0.08204677	      0.38191876	     -0.11049672	     -0.08163409	      0.38051339	     -0.25560788	      0.09419150	      0.51514048	     -0.10187904	      0.06158588	      0.54035224	     -0.12805847	      0.02612283	      0.47129051	     -0.13377377	     -0.39544084	      0.19240030	     -0.14616455	     -0.37101801	      0.17595904	     -0.21703266	     -0.22027456	      0.19675494	     -0.14310552	     -0.23853493	      0.23638811	     -0.16247290	     -0.07085339	      0.38721326	     -0.16973223	     -0.37727558	      0.18386011	     -0.19064324	     -0.39576720	      0.07347299	     -0.17450693	      0.13567259	      0.41757565	     -0.39810633	      0.11655329	      0.40586381	     -0.25119275	      0.22908656	      0.64960276	     -0.33135931	      0.18089171	      0.64687846	     -0.34513699	      0.19000743	      0.57373834	     -0.34004938	      0.12215900	      0.04607480	     -0.37418956	      0.12760773	      0.06349002	     -0.29634318	      0.11365574	      0.15691863	     -0.44143987	      0.11067587	      0.16883846	     -0.39411771	      0.12463451	      0.42720986	     -0.33184480	      0.13657425	      0.05905899	     -0.32925362	      0.23527762	      0.03470877	     -0.33219024	      0.00911831	      1.26506791	     -0.24650849	      0.00255733	      1.26404760	     -0.32816950	     -0.13488393	      1.30232391	     -0.27432183	     -0.01032633	      1.25546829	     -0.29814101	      0.05620078	      1.19482041	     -0.30152706	     -0.01517600	      0.75735500	     -0.28375600	     -0.04408500	      0.75516800	     -0.20678800	     -0.02630300	      0.76632900	     -0.36099400	     -0.09196900	      0.37422000	     -0.17087700	      0.11194200	      0.42523600	     -0.33326400	     -0.38716700	      0.17170100	     -0.19834200	      0.12769400	      0.05780700	     -0.31318500	      0.08974800	      0.83511900	     -0.26410000	      0.07609100	      0.82654800	     -0.14567200	      0.10340500	      0.84369000	     -0.38252900	     -0.15750600	      0.89899500	     -0.24698100	     -0.15622300	      0.90163300	     -0.30084500	     -0.10177100	      0.38208700	     -0.10049100	      0.12550600	      0.42502600	     -0.40346600	     -0.05679100	      0.35774100	     -0.24779000	      0.09418500	      0.41115400	     -0.24374700	     -0.39931400	      0.18478100	     -0.16423100	      0.11840400	      0.05531500	     -0.35149600	     -0.37046600	      0.16367000	     -0.22982800	      0.12090000	      0.07487800	     -0.27402700	     -0.12905500	      1.32595500	     -0.27700500	      0.00524300	      1.26760800	     -0.24431500	      0.00216100	      1.26854100	     -0.32771300	     -0.01358900	      1.26162500	     -0.29772500	      0.04362700	      1.19171400	     -0.29931900	      0.07360200	      0.52207800	     -0.07970500	      0.20935900	      0.65148800	     -0.31920100	      0.04344900	      0.54089400	     -0.11066300	      0.16485800	      0.65038100	     -0.33766400	      0.01845600	      0.46718200	     -0.11730400	      0.17448900	      0.57766400	     -0.32923700	     -0.22507400	      0.19145300	     -0.14041000	      0.12195800	      0.15557100	     -0.42299600	     -0.24820900	      0.22617600	     -0.16249500	      0.11809400	      0.17127700	     -0.37870100	     -0.38509400	      0.06909300	     -0.20213500	      0.23408300	      0.04797800	     -0.32478200	      0.00000000	      0.00000000	      0.00000000	      0.63173059	      0.00000000	     -0.20572374	   -164.33868066	    830.00641647	     40.65451657	      0.14564136	      0.00000000	     -0.31998370	      0.00000000	      0.00000000	      0.00000000	      0.00000000	      3.21037109	      0.00000000	     -0.01517606	      0.75735462	     -0.28375643	     -0.04408550	      0.75516832	     -0.20678793	     -0.02630265	      0.76632893	     -0.36099440	     -0.09196883	      0.37421966	     -0.17087737	      0.11194196	      0.42523581	     -0.33326444	     -0.38716650	      0.17170092	     -0.19834213	      0.12769365	      0.05780686	     -0.31318513	      0.08974822	      0.83511889	     -0.26410049	      0.07609120	      0.82654768	     -0.14567176	      0.10340524	      0.84369010	     -0.38252926	     -0.15750577	      0.89899480	     -0.24698092	     -0.15622330	      0.90163344	     -0.30084497	     -0.10177148	      0.38208684	     -0.10049082	      0.12550564	      0.42502597	     -0.40346581	     -0.05679142	      0.35774082	     -0.24778987	      0.09418485	      0.41115385	     -0.24374732	     -0.39931387	      0.18478125	     -0.16423060	      0.11840362	      0.05531497	     -0.35149616	     -0.37046641	      0.16366953	     -0.22982763	      0.12090008	      0.07487822	     -0.27402714	     -0.12905535	      1.32595468	     -0.27700534	      0.00524345	      1.26760805	     -0.24431460	      0.00216102	      1.26854074	     -0.32771283	     -0.01358904	      1.26162457	     -0.29772514	      0.04362701	      1.19171429	     -0.29931855	      0.07360243	      0.52207810	     -0.07970452	      0.20935939	      0.65148848	     -0.31920066	      0.04344917	      0.54089433	     -0.11066251	      0.16485813	      0.65038145	     -0.33766443	      0.01845609	      0.46718186	     -0.11730434	      0.17448939	      0.57766372	     -0.32923672	     -0.22507395	      0.19145307	     -0.14040971	      0.12195812	      0.15557058	     -0.42299640	     -0.24820885	      0.22617623	     -0.16249475	      0.11809417	      0.17127712	     -0.37870079	     -0.38509360	      0.06909327	     -0.20213483	      0.23408316	      0.04797766	     -0.32478222
